<?xml version="1.0" standalone="no"?>
<!DOCTYPE svg PUBLIC "-//W3C//DTD SVG 20010904//EN"
 "http://www.w3.org/TR/2001/REC-SVG-20010904/DTD/svg10.dtd">
<svg version="1.0" xmlns="http://www.w3.org/2000/svg"
 width="60.000000pt" height="60.000000pt" viewBox="0 0 144.000000 98.000000"
 preserveAspectRatio="xMidYMid meet">
<metadata>
Created by potrace 1.16, written by Peter Selinger 2001-2019
</metadata>
<g transform="translate(0.000000,98.000000) scale(0.100000,-0.100000)"
fill="#000000" stroke="none">
<path d="M500 924 c-107 -16 -160 -27 -168 -37 -5 -7 -26 -54 -48 -104 -21
-51 -42 -93 -46 -93 -4 0 -8 17 -8 39 0 35 -3 39 -31 45 -50 10 -104 7 -117
-6 -23 -23 -12 -39 47 -64 68 -29 80 -47 46 -62 -53 -24 -75 -121 -75 -327 0
-77 4 -145 9 -150 6 -6 11 -35 13 -65 l3 -55 145 0 145 0 3 42 c3 42 4 43 37
43 19 0 37 5 40 10 4 6 25 -9 49 -35 35 -36 50 -45 78 -45 19 0 43 6 53 14 12
8 34 11 62 8 35 -4 49 0 66 16 12 11 32 23 45 27 12 3 27 15 32 26 14 24 37
24 75 -1 17 -11 42 -20 57 -20 24 0 27 -4 30 -42 l3 -43 145 0 145 0 3 50 c1
28 7 60 13 72 15 28 6 343 -11 397 -6 22 -25 53 -41 69 -16 16 -26 33 -23 39
4 6 31 21 60 34 30 13 54 30 54 37 0 34 -40 44 -124 30 -38 -6 -38 -6 -33 -44
9 -69 -10 -51 -55 54 -32 73 -51 105 -69 114 -43 20 -199 33 -394 32 -104 -1
-201 -3 -215 -5z m220 -42 c0 -5 -70 -14 -155 -20 -85 -6 -162 -15 -171 -20
-9 -5 -36 -53 -59 -106 -23 -53 -51 -103 -61 -111 -23 -16 -24 -16 99 -45 117
-27 125 -26 193 15 37 23 70 35 93 35 65 0 66 -14 6 -54 -75 -49 -92 -98 -49
-141 22 -22 58 -19 114 10 27 14 55 25 62 25 22 0 168 -153 168 -176 0 -34
-29 -38 -60 -9 -36 35 -50 32 -16 -4 54 -57 12 -93 -52 -45 l-37 27 28 -30
c21 -23 27 -37 22 -52 -9 -30 -34 -26 -74 12 -21 19 -27 22 -13 6 26 -30 29
-67 6 -76 -23 -9 -47 9 -51 38 -2 13 -14 34 -28 46 -14 12 -25 25 -25 28 0 4
-29 36 -64 71 -75 75 -105 82 -149 36 l-27 -28 -123 22 c-67 12 -125 20 -129
17 -12 -6 -10 -121 2 -128 6 -3 10 -33 10 -66 l0 -60 87 3 88 3 3 45 3 45 59
0 c33 0 60 -3 60 -6 0 -18 -31 -30 -64 -23 l-36 6 0 -46 0 -46 -110 0 -110 0
0 60 c0 38 -4 60 -11 60 -8 0 -10 47 -7 162 5 187 16 226 70 254 54 27 65 41
109 144 l42 99 51 11 c92 19 306 27 306 12z m344 -14 c36 -12 41 -20 85 -117
44 -98 49 -105 95 -130 39 -20 52 -35 64 -66 19 -51 30 -355 13 -355 -7 0 -11
-21 -11 -53 0 -29 -5 -58 -12 -65 -8 -8 -47 -12 -110 -12 -107 0 -118 6 -118
68 0 26 -3 28 -28 24 -32 -4 -102 32 -102 54 0 19 9 18 47 -6 26 -15 43 -18
78 -13 l45 6 0 -47 0 -46 84 0 83 0 6 83 c10 118 8 207 -2 207 -6 0 -65 -14
-133 -30 -67 -17 -132 -30 -143 -30 -11 0 -61 38 -113 87 l-94 86 -69 -37
c-56 -30 -72 -35 -89 -26 -25 13 -26 51 -2 73 32 29 195 127 211 127 9 0 38
-18 65 -40 57 -47 72 -49 184 -14 61 18 81 28 74 37 -5 7 -29 55 -52 109 -49
113 -34 106 -237 115 -118 5 -143 9 -143 21 0 13 20 14 143 9 78 -3 159 -11
181 -19z m-529 -555 c5 -12 18 -24 28 -27 10 -2 21 -14 24 -25 3 -12 11 -21
19 -21 14 0 40 -39 27 -41 -4 -1 3 -4 17 -8 34 -9 41 -64 10 -81 -31 -17 -64
-9 -68 17 -2 14 -11 23 -25 25 -14 2 -23 11 -25 26 -2 14 -10 22 -23 22 -18 0
-23 10 -20 39 2 7 -2 10 -7 7 -19 -11 -42 6 -42 32 0 55 64 82 85 35z"/>
</g>
</svg>
